:SAMPLES-PER-SECOND 30
:FULLY-SPECIFIED
:DEGREES
334
root  20.995 37.0484 -2.62964 -2.63219 85.9404 9.92686
RightUpLeg  -14.3763 -3.71365 -1.82096
RightLeg  6.16541 -1.133 -0.999546
RightFoot  -1.16773 -0.280638 3.84693
RightToes  4.6566e-010 0 -3.6325e-017
Spine  9.17827 -1.45364 -2.14489
Spine1  13.2518 -3.40834 5.134
HEad  -12.4966 5.94931 -5.98295
LeftShoulder1  -0.256264 4.15883 -32.9962
LeftArm  -11.4497 9.09949 -35.504
LeftForeArm  44.2201 -77.7681 -63.2666
LeftHand  0.00179323 3.77634 -1.7726
RightShoulder  -0.835305 -5.79971 29.7627
RightArm  -11.7144 -18.379 35.1162
RightForeArm  102.001 75.3024 130.143
RightHand  -0.247463 3.56427 -3.45796
LeftUpLeg  26.6835 6.40446 3.46823
LeftLeg  19.9504 -8.65251 -3.01536
LeftFoot  -24.9885 0.405416 2.10275
LeftToes  -4.59298e-010 2.08438e-011 -1.27151e-011
335
root  22.7519 36.8406 -2.32878 -28.1612 86.6176 -15.328
RightUpLeg  -15.5352 -4.6823 -0.150213
RightLeg  12.5188 -0.396341 -0.0343496
RightFoot  7.6363 0.146202 -0.76707
RightToes  4.6566e-010 0 -3.6325e-017
Spine  9.23978 -2.25369 1.2215
Spine1  13.6093 -3.729 4.92461
HEad  -12.5755 5.90686 -6.17275
LeftShoulder1  -0.275417 4.20394 -33.1812
LeftArm  -10.9124 9.99477 -34.816
LeftForeArm  46.3472 -78.0091 -65.9768
LeftHand  -0.00105247 3.23319 -0.907788
RightShoulder  -0.894853 -5.94712 30.0316
RightArm  -11.0337 -19.0945 34.17
RightForeArm  102.237 75.1263 130.86
RightHand  -0.228447 3.29143 -3.2988
LeftUpLeg  27.9408 3.78703 5.19604
LeftLeg  23.5558 -8.46067 -3.73957
LeftFoot  -23.9812 -0.0849044 -1.99032
LeftToes  -4.59298e-010 2.08438e-011 -1.27151e-011
336
root  24.4412 36.4231 -1.84231 -49.0102 84.9464 -35.9856
RightUpLeg  -17.7304 -3.72095 2.59677
RightLeg  21.5745 0.592379 0.0501675
RightFoot  7.67082 0.238037 -1.14829
RightToes  4.6566e-010 0 -3.6325e-017
Spine  10.3569 -2.23594 3.93892
Spine1  12.7401 -3.13742 5.31415
HEad  -12.612 5.91106 -6.64415
LeftShoulder1  -0.3381 4.35479 -33.5981
LeftArm  -10.5799 10.7007 -34.3254
LeftForeArm  47.0953 -78.0624 -66.4392
LeftHand  0.00607834 2.7874 -0.910896
RightShoulder  -0.896667 -5.9584 29.9311
RightArm  -10.348 -19.7351 33.5903
RightForeArm  100.789 75.2754 130.009
RightHand  -0.239328 3.13891 -3.50921
LeftUpLeg  26.2592 3.804 9.10761
LeftLeg  32.9807 -9.31643 -6.13616
LeftFoot  -21.1903 -0.482494 -7.52257
LeftToes  -4.59298e-010 2.08438e-011 -1.27151e-011
337
root  26.0739 36.1301 -1.58608 -67.2539 83.8687 -54.2136
RightUpLeg  -18.6711 -5.72815 4.73973
RightLeg  28.6613 1.7125 0.744285
RightFoot  4.06144 0.500126 -3.50201
RightToes  4.6566e-010 0 -3.6325e-017
Spine  11.1444 -3.15155 7.69596
Spine1  12.3281 -3.1236 4.55839
HEad  -13.1256 6.1059 -6.84905
LeftShoulder1  -0.295048 4.2478 -33.51
LeftArm  -10.9817 11.9652 -34.8765
LeftForeArm  49.8025 -78.2795 -68.955
LeftHand  0.00464867 3.02426 -0.640209
RightShoulder  -0.821609 -5.76646 29.692
RightArm  -9.88491 -19.7635 33.106
RightForeArm  99.0784 75.5622 128.528
RightHand  -0.211648 4.03873 -2.87062
LeftUpLeg  21.1483 3.12747 12.2348
LeftLeg  45.325 -7.60189 -7.64195
LeftFoot  -10.5819 0.106749 -11.6201
LeftToes  -4.59298e-010 2.08438e-011 -1.27151e-011
338
root  27.4238 35.9303 -1.10674 -82.5442 83.477 -69.7169
RightUpLeg  -19.2675 -6.9309 6.10468
RightLeg  34.0233 0.775071 0.297864
RightFoot  0.261968 0.528736 -5.14404
RightToes  4.6566e-010 0 -3.6325e-017
Spine  12.5075 -3.4029 7.16732
Spine1  11.9369 -3.72058 7.23637
HEad  -14.3304 6.01866 -6.35218
LeftShoulder1  -0.258688 4.16219 -33.1606
LeftArm  -11.5626 11.7517 -35.632
LeftForeArm  52.9839 -78.4915 -71.4966
LeftHand  0.00312251 3.21005 -0.711241
RightShoulder  -0.824797 -5.75422 30.0242
RightArm  -9.80067 -18.3495 32.4612
RightForeArm  97.3153 75.7196 127.506
RightHand  -0.224325 3.70624 -3.11918
LeftUpLeg  12.8494 1.68159 13.6821
LeftLeg  58.1492 -3.75341 -5.91406
LeftFoot  5.21216 1.33793 -9.64966
LeftToes  -4.59298e-010 2.08438e-011 -1.27151e-011
339
root  28.6579 35.7784 -0.778294 -103.914 82.3603 -91.0668
RightUpLeg  -18.655 -9.20463 7.45515
RightLeg  37.3691 0.131265 -0.170623
RightFoot  -3.49261 0.360979 -5.59442
RightToes  4.6566e-010 0 -3.6325e-017
Spine  14.0619 -4.13335 8.59649
Spine1  11.2767 -4.20849 8.21885
HEad  -15.6585 5.44628 -5.82001
LeftShoulder1  -0.215837 4.05275 -33.1997
LeftArm  -11.5175 10.1946 -36.2367
LeftForeArm  53.427 -78.4932 -70.8363
LeftHand  0.00678859 2.70566 -0.797183
RightShoulder  -0.819599 -5.75174 29.835
RightArm  -10.4833 -17.3565 32.7518
RightForeArm  94.5253 75.9112 126.074
RightHand  -0.255577 3.98987 -3.42962
LeftUpLeg  4.62082 -0.399919 14.8338
LeftLeg  68.7177 -1.56118 -3.82753
LeftFoot  10.3367 0.934945 -5.00077
LeftToes  -4.59298e-010 2.08438e-011 -1.27151e-011
340
root  29.9935 35.9754 -0.529974 -108.959 82.135 -95.8509
RightUpLeg  -16.2353 -10.0911 7.53323
RightLeg  38.085 -0.00880034 -0.295937
RightFoot  -6.12262 0.230746 -5.945
RightToes  4.6566e-010 0 -3.6325e-017
Spine  13.811 -3.83844 9.7851
Spine1  12.4204 -3.68141 7.38297
HEad  -16.4668 3.78868 -5.06234
LeftShoulder1  -0.0925255 3.73801 -33.3675
LeftArm  -11.6976 7.93826 -37.5012
LeftForeArm  49.7732 -78.1645 -65.9025
LeftHand  0.00508995 2.56125 -0.812792
RightShoulder  -0.8267 -5.78282 29.6549
RightArm  -11.4734 -16.0061 33.279
RightForeArm  89.871 76.3723 122.8
RightHand  -0.296756 4.07175 -3.91711
LeftUpLeg  -1.82993 -0.456545 14.492
LeftLeg  74.9092 -1.26907 -4.31799
LeftFoot  6.61873 0.350737 -2.52257
LeftToes  -4.59298e-010 2.08438e-011 -1.27151e-011
341
root  31.2884 36.2616 -0.325099 -108.363 82.6372 -95.3851
RightUpLeg  -13.7229 -9.85863 7.13558
RightLeg  37.7278 -0.106857 -0.376092
RightFoot  -8.4421 0.091558 -5.85138
RightToes  4.6566e-010 0 -3.6325e-017
Spine  14.049 -3.55907 10.6558
Spine1  11.923 -2.848 5.89438
HEad  -15.8518 3.15388 -4.56848
LeftShoulder1  -0.089174 3.73011 -33.3477
LeftArm  -12.0551 7.26993 -38.0521
LeftForeArm  47.7793 -77.9274 -63.0371
LeftHand  -0.00179663 2.25226 -0.410298
RightShoulder  -0.837713 -5.79601 29.927
RightArm  -11.8105 -14.8549 33.6123
RightForeArm  85.3466 77.0248 117.98
RightHand  -0.293225 4.62977 -3.67843
LeftUpLeg  -7.76998 0.541108 13.1322
LeftLeg  76.8935 -1.3356 -5.42543
LeftFoot  5.00224 0.34175 -2.58756
LeftToes  -4.59298e-010 2.08438e-011 -1.27151e-011
342
root  32.5965 36.6378 -0.12522 -105.782 83.5029 -93.4979
RightUpLeg  -11.309 -8.94605 6.56935
RightLeg  36.3459 -0.476158 -0.657702
RightFoot  -10.3692 -0.0228954 -5.4847
RightToes  4.6566e-010 0 -3.6325e-017
Spine  12.8694 -3.11826 10.628
Spine1  12.3032 -2.30113 4.67259
HEad  -15.2611 3.43948 -4.47431
LeftShoulder1  -0.142423 3.86499 -33.2239
LeftArm  -12.7723 7.39898 -38.2884
LeftForeArm  47.6524 -77.8962 -62.6121
LeftHand  -0.00450217 1.77291 -0.178347
RightShoulder  -0.836293 -5.77977 30.1064
RightArm  -11.8535 -13.3776 34.4048
RightForeArm  80.627 77.4307 113.898
RightHand  -0.367834 4.86752 -4.45952
LeftUpLeg  -13.2587 2.23139 11.3175
LeftLeg  75.0954 -1.95492 -7.23413
LeftFoot  2.55554 0.301045 -2.61349
LeftToes  -4.59298e-010 2.08438e-011 -1.27151e-011
343
root  33.9016 37.0259 0.0564948 -100.349 84.4006 -88.6179
RightUpLeg  -8.57198 -7.97045 5.97532
RightLeg  34.4274 -0.763051 -0.836202
RightFoot  -11.8429 -0.102246 -4.97182
RightToes  4.6566e-010 0 -3.6325e-017
Spine  11.9919 -2.40506 9.90085
Spine1  12.1186 -1.85577 4.62552
HEad  -14.4782 3.53292 -5.07884
LeftShoulder1  -0.225311 4.05967 -34.4045
LeftArm  -13.4221 7.82237 -37.0114
LeftForeArm  49.5582 -78.0801 -64.3183
LeftHand  0.0284483 1.64554 -1.15255
RightShoulder  -0.778159 -5.65883 29.4547
RightArm  -11.691 -12.6776 35.015
RightForeArm  78.3049 77.587 111.976
RightHand  -0.358532 4.87599 -4.34614
LeftUpLeg  -17.3663 3.92932 9.44516
LeftLeg  69.9014 -3.3086 -9.20153
LeftFoot  -0.297035 0.304984 -3.13308
LeftToes  -4.59298e-010 2.08438e-011 -1.27151e-011
344
root  35.2329 37.3939 0.212893 -96.9668 85.0351 -85.687
RightUpLeg  -5.50662 -7.56653 5.38362
RightLeg  32.1407 -0.721631 -0.755319
RightFoot  -12.9127 -0.152688 -4.78245
RightToes  4.6566e-010 0 -3.6325e-017
Spine  10.5908 -2.061 9.69674
Spine1  12.7117 -1.53267 3.47679
HEad  -14.6834 3.93974 -5.19046
LeftShoulder1  -0.297854 4.23885 -34.3634
LeftArm  -14.719 8.58481 -36.5735
LeftForeArm  53.424 -78.4101 -67.8803
LeftHand  0.0673783 0.965406 -1.94975
RightShoulder  -0.920939 -6.00091 30.2996
RightArm  -10.8139 -11.4783 34.56
RightForeArm  78.1406 77.5198 112.447
RightHand  -0.321837 4.18041 -4.18261
LeftUpLeg  -20.065 5.13165 7.7584
LeftLeg  61.8022 -4.6558 -8.81572
LeftFoot  -2.17014 0.26057 -3.06957
LeftToes  -4.59298e-010 2.08438e-011 -1.27151e-011
